<?xml version="1.0" encoding="UTF-8" standalone="no"?>
<!-- Created with Inkscape (http://www.inkscape.org/) -->

<svg
   width="24.22126mm"
   height="24.062613mm"
   viewBox="0 0 91.544923 90.945308"
   version="1.1"
   id="svg1"
   xmlns="http://www.w3.org/2000/svg"
   xmlns:svg="http://www.w3.org/2000/svg">
  <defs
     id="defs1" />
  <g
     id="layer1"
     transform="translate(-345.86524,-454.30276)">
    <path
       id="path8"
       fill="currentColor"
       style="font-size:120px;font-family:'Standard Symbols PS';-inkscape-font-specification:'Standard Symbols PS, Normal';fill-opacity:1;stroke-width:1.002"
       d="m 369.3086,464.48829 v 3.23438 c 3.09335,0.3646 5.70294,1.67836 7.02149,3.60547 1.44,2.16 1.80078,3.96117 1.80078,10.20117 V 528.209 c 0,0.57079 -0.0185,0.97238 -0.0293,1.4414 4.95764,-0.004 9.05137,-0.80619 12.26953,-2.36523 v -57.87696 h 27.11914 c 10.56,0 15.24079,4.08149 16.80079,14.52149 h 3.11914 l -1.32032,-19.44141 z m 21.50586,71.18164 c -1.72853,0.16231 -3.56568,0.25 -5.55469,0.25 h -7.7246 c -0.27437,0.96973 -0.66341,1.72092 -1.20508,2.48829 -1.56,2.28 -4.91977,3.7207 -8.75977,3.7207 h -0.35937 v 3.11914 h 36.11914 v -3.11914 h -1.19922 c -4.56,0 -8.40008,-1.4407 -10.08008,-3.7207 -0.59957,-0.79943 -0.98353,-1.61838 -1.23633,-2.73829 z" />
    <path
       id="text3"
       fill="currentColor"
       style="font-size:120px;font-family:'Standard Symbols PS';-inkscape-font-specification:'Standard Symbols PS, Normal';fill-opacity:1;stroke-width:1.002"
       d="m 345.86524,454.30275 v 3.24023 h 0.35938 c 3.84,0 7.19976,1.3207 8.75976,3.7207 1.44,2.04 1.80078,3.84008 1.80078,10.08008 v 46.67969 c 0,6.24 -0.36078,8.03922 -1.80078,10.19922 -1.56,2.28 -4.91976,3.7207 -8.75976,3.7207 h -0.35938 v 3.11914 h 39.11914 c 6.96,0 12.23946,-0.95914 16.43946,-3.11914 7.68,-3.96 12,-10.79898 12,-18.95898 0,-6.84 -3.11938,-12.1218 -9.35938,-15.8418 -3.24,-1.92 -6,-2.88008 -12,-4.08008 10.56,-1.8 17.16016,-8.3993 17.16016,-17.2793 0,-2.00569 -0.27365,-3.92951 -0.79688,-5.75 h -12.10547 c 0.35122,1.36819 0.54297,2.81518 0.54297,4.31055 0,5.33088 -2.06482,9.57245 -5.78711,12.40039 v 11.44922 c 4.99381,2.85002 7.58594,7.72238 7.58594,14.55078 0,11.52 -7.1989,17.51953 -20.8789,17.51953 -4.32,0 -7.20016,-0.23961 -8.16016,-0.59961 -0.36,-0.24 -0.59961,-0.60031 -0.59961,-1.32031 v -33.12109 h 8.0957 v -4.5586 h -8.0957 v -30.12109 c 0,-0.84 0.23984,-1.32031 0.83984,-1.32031 0.6,-0.12 4.07852,-0.23828 6.47852,-0.23828 6.24,0 9.36,0.35945 12,1.43945 1.95248,0.77191 3.64747,2.04257 5,3.66797 h 12.2168 c -1.87875,-2.62937 -4.44356,-4.85727 -7.61524,-6.54883 -4.44,-2.28 -9.9614,-3.24023 -19.4414,-3.24023 z" />
  </g>
</svg>
